<?xml version="1.0" encoding="UTF-8"?>
<mxfile host="app.diagrams.net" modified="2025-08-14T08:15:00.000Z" agent="5.0" version="24.7.8" etag="smart-review-flow" type="device">
  <diagram name="smart-review-flow" id="smart-review-flow">
    <mxGraphModel dx="1422" dy="754" grid="1" gridSize="10" guides="1" tooltips="1" connect="1" arrows="1" fold="1" page="1" pageScale="1" pageWidth="1654" pageHeight="2800" math="0" shadow="0">
      <root>
        <mxCell id="0" />
        <mxCell id="1" parent="0" />
        
        <!-- Title -->
        <mxCell id="title" value="Smart Review 標準版システム フロー図&#xa;smart-review.js" style="text;html=1;align=center;verticalAlign=middle;whiteSpace=wrap;fontSize=16;fontStyle=1;fontColor=#000000" vertex="1" parent="1">
          <mxGeometry x="300" y="40" width="400" height="40" as="geometry" />
        </mxCell>
        
        <!-- Start -->
        <mxCell id="start" value="🚀 開始&#xa;Smart Review 実行" style="ellipse;whiteSpace=wrap;html=1;fillColor=#e1d5e7;strokeColor=#9673a6;fontSize=14;fontStyle=1" vertex="1" parent="1">
          <mxGeometry x="400" y="100" width="200" height="80" as="geometry" />
        </mxCell>
        
        <!-- Initialization -->
        <mxCell id="initialization" value="🔧 初期化&#xa;実行コンテキスト設定" style="rounded=1;whiteSpace=wrap;html=1;fillColor=#d5e8d4;strokeColor=#82b366;fontSize=12;fontStyle=1" vertex="1" parent="1">
          <mxGeometry x="400" y="220" width="200" height="60" as="geometry" />
        </mxCell>
        
        <!-- Output Directory -->
        <mxCell id="outputdir" value="📁 出力ディレクトリ作成&#xa;mkdir -p outputDir" style="rounded=1;whiteSpace=wrap;html=1;fillColor=#d5e8d4;strokeColor=#82b366;fontSize=11" vertex="1" parent="1">
          <mxGeometry x="400" y="320" width="200" height="50" as="geometry" />
        </mxCell>
        
        <!-- Scope Branch -->
        <mxCell id="scopebranch" value="🔀 実行モード選択" style="rhombus;whiteSpace=wrap;html=1;fillColor=#fff2cc;strokeColor=#d6b656;fontSize=12;fontStyle=1" vertex="1" parent="1">
          <mxGeometry x="400" y="400" width="200" height="80" as="geometry" />
        </mxCell>
        
        <!-- All Mode -->
        <mxCell id="allmode" value="📊 全体分析モード&#xa;scope = 'all'" style="rounded=1;whiteSpace=wrap;html=1;fillColor=#d5e8d4;strokeColor=#82b366;fontSize=12;fontStyle=1" vertex="1" parent="1">
          <mxGeometry x="200" y="520" width="180" height="60" as="geometry" />
        </mxCell>
        
        <!-- Changes Mode -->
        <mxCell id="changesmode" value="🔄 差分修正モード&#xa;scope = 'changes'" style="rounded=1;whiteSpace=wrap;html=1;fillColor=#f8cecc;strokeColor=#b85450;fontSize=12;fontStyle=1" vertex="1" parent="1">
          <mxGeometry x="620" y="520" width="180" height="60" as="geometry" />
        </mxCell>
        
        <!-- All Mode Process -->
        <mxCell id="allmodeprocess" value="🔍 全エージェント実行&#xa;for agent in reviewAgents" style="rounded=1;whiteSpace=wrap;html=1;fillColor=#d5e8d4;strokeColor=#82b366;fontSize=11;fontStyle=1" vertex="1" parent="1">
          <mxGeometry x="200" y="620" width="180" height="50" as="geometry" />
        </mxCell>
        
        <!-- TODO Generation -->
        <mxCell id="todogen" value="📋 TODO生成&#xa;generateTodoList()" style="rounded=1;whiteSpace=wrap;html=1;fillColor=#d5e8d4;strokeColor=#82b366;fontSize=11" vertex="1" parent="1">
          <mxGeometry x="200" y="700" width="180" height="50" as="geometry" />
        </mxCell>
        
        <!-- Changes Process -->
        <mxCell id="changesprocess" value="🔍 変更ファイル検出&#xa;detectChangedFiles()" style="rounded=1;whiteSpace=wrap;html=1;fillColor=#f8cecc;strokeColor=#b85450;fontSize=11;fontStyle=1" vertex="1" parent="1">
          <mxGeometry x="620" y="620" width="180" height="50" as="geometry" />
        </mxCell>
        
        <!-- Iteration Loop -->
        <mxCell id="iterloop" value="🔄 イテレーションループ&#xa;while hasErrors" style="rounded=1;whiteSpace=wrap;html=1;fillColor=#f8cecc;strokeColor=#b85450;fontSize=11;fontStyle=1" vertex="1" parent="1">
          <mxGeometry x="620" y="700" width="180" height="50" as="geometry" />
        </mxCell>
        
        <!-- Final Report -->
        <mxCell id="finalreport" value="📄 最終レポート生成&#xa;generateFinalReport()" style="rounded=1;whiteSpace=wrap;html=1;fillColor=#d5e8d4;strokeColor=#82b366;fontSize=12;fontStyle=1" vertex="1" parent="1">
          <mxGeometry x="400" y="800" width="200" height="60" as="geometry" />
        </mxCell>
        
        <!-- Success End -->
        <mxCell id="success" value="✅ 成功完了&#xa;Smart Review 完了" style="ellipse;whiteSpace=wrap;html=1;fillColor=#d5e8d4;strokeColor=#82b366;fontSize=14;fontStyle=1" vertex="1" parent="1">
          <mxGeometry x="400" y="900" width="200" height="80" as="geometry" />
        </mxCell>
        
        <!-- Main Flow Arrows -->
        <mxCell id="arrow1" style="edgeStyle=orthogonalEdgeStyle;rounded=0;orthogonalLoop=1;jettySize=auto;html=1;entryX=0.5;entryY=0;entryDx=0;entryDy=0;" edge="1" parent="1" source="start" target="initialization">
          <mxGeometry relative="1" as="geometry" />
        </mxCell>
        
        <mxCell id="arrow2" style="edgeStyle=orthogonalEdgeStyle;rounded=0;orthogonalLoop=1;jettySize=auto;html=1;entryX=0.5;entryY=0;entryDx=0;entryDy=0;" edge="1" parent="1" source="initialization" target="outputdir">
          <mxGeometry relative="1" as="geometry" />
        </mxCell>
        
        <mxCell id="arrow3" style="edgeStyle=orthogonalEdgeStyle;rounded=0;orthogonalLoop=1;jettySize=auto;html=1;entryX=0.5;entryY=0;entryDx=0;entryDy=0;" edge="1" parent="1" source="outputdir" target="scopebranch">
          <mxGeometry relative="1" as="geometry" />
        </mxCell>
        
        <mxCell id="arrow4" style="edgeStyle=orthogonalEdgeStyle;rounded=0;orthogonalLoop=1;jettySize=auto;html=1;entryX=0.5;entryY=0;entryDx=0;entryDy=0;" edge="1" parent="1" source="scopebranch" target="allmode">
          <mxGeometry relative="1" as="geometry" />
        </mxCell>
        <mxCell id="arrow4label" value="all" style="edgeLabel;html=1;align=center;verticalAlign=middle;resizable=0;points=[];fontColor=#000000" vertex="1" connectable="0" parent="arrow4">
          <mxGeometry x="-0.1" y="-2" relative="1" as="geometry">
            <mxPoint as="offset" />
          </mxGeometry>
        </mxCell>
        
        <mxCell id="arrow5" style="edgeStyle=orthogonalEdgeStyle;rounded=0;orthogonalLoop=1;jettySize=auto;html=1;entryX=0.5;entryY=0;entryDx=0;entryDy=0;" edge="1" parent="1" source="scopebranch" target="changesmode">
          <mxGeometry relative="1" as="geometry" />
        </mxCell>
        <mxCell id="arrow5label" value="changes" style="edgeLabel;html=1;align=center;verticalAlign=middle;resizable=0;points=[];fontColor=#000000" vertex="1" connectable="0" parent="arrow5">
          <mxGeometry x="-0.1" y="-2" relative="1" as="geometry">
            <mxPoint as="offset" />
          </mxGeometry>
        </mxCell>
        
        <mxCell id="arrow6" style="edgeStyle=orthogonalEdgeStyle;rounded=0;orthogonalLoop=1;jettySize=auto;html=1;entryX=0.5;entryY=0;entryDx=0;entryDy=0;" edge="1" parent="1" source="allmode" target="allmodeprocess">
          <mxGeometry relative="1" as="geometry" />
        </mxCell>
        
        <mxCell id="arrow7" style="edgeStyle=orthogonalEdgeStyle;rounded=0;orthogonalLoop=1;jettySize=auto;html=1;entryX=0.5;entryY=0;entryDx=0;entryDy=0;" edge="1" parent="1" source="allmodeprocess" target="todogen">
          <mxGeometry relative="1" as="geometry" />
        </mxCell>
        
        <mxCell id="arrow8" style="edgeStyle=orthogonalEdgeStyle;rounded=0;orthogonalLoop=1;jettySize=auto;html=1;entryX=0.5;entryY=0;entryDx=0;entryDy=0;" edge="1" parent="1" source="changesmode" target="changesprocess">
          <mxGeometry relative="1" as="geometry" />
        </mxCell>
        
        <mxCell id="arrow9" style="edgeStyle=orthogonalEdgeStyle;rounded=0;orthogonalLoop=1;jettySize=auto;html=1;entryX=0.5;entryY=0;entryDx=0;entryDy=0;" edge="1" parent="1" source="changesprocess" target="iterloop">
          <mxGeometry relative="1" as="geometry" />
        </mxCell>
        
        <mxCell id="arrow10" style="edgeStyle=orthogonalEdgeStyle;rounded=0;orthogonalLoop=1;jettySize=auto;html=1;entryX=0;entryY=0.5;entryDx=0;entryDy=0;" edge="1" parent="1" source="todogen" target="finalreport">
          <mxGeometry relative="1" as="geometry">
            <Array as="points">
              <mxPoint x="290" y="830" />
            </Array>
          </mxGeometry>
        </mxCell>
        
        <mxCell id="arrow11" style="edgeStyle=orthogonalEdgeStyle;rounded=0;orthogonalLoop=1;jettySize=auto;html=1;entryX=1;entryY=0.5;entryDx=0;entryDy=0;" edge="1" parent="1" source="iterloop" target="finalreport">
          <mxGeometry relative="1" as="geometry">
            <Array as="points">
              <mxPoint x="710" y="830" />
            </Array>
          </mxGeometry>
        </mxCell>
        
        <mxCell id="arrow12" style="edgeStyle=orthogonalEdgeStyle;rounded=0;orthogonalLoop=1;jettySize=auto;html=1;entryX=0.5;entryY=0;entryDx=0;entryDy=0;" edge="1" parent="1" source="finalreport" target="success">
          <mxGeometry relative="1" as="geometry" />
        </mxCell>
        
        <!-- Legend -->
        <mxCell id="legend" value="🔍 凡例&#xa;━━ メインフロー&#xa;📊 全体分析モード&#xa;🔄 差分修正モード&#xa;📋 TODO生成&#xa;📄 レポート生成" style="rounded=1;whiteSpace=wrap;html=1;fillColor=#f5f5f5;strokeColor=#666666;fontSize=10;align=left;fontColor=#000000" vertex="1" parent="1">
          <mxGeometry x="50" y="100" width="140" height="120" as="geometry" />
        </mxCell>
        
      </root>
    </mxGraphModel>
  </diagram>
</mxfile>